<svg width="1600" height="1000" viewBox="0 0 1600 1000" fill="none" xmlns="http://www.w3.org/2000/svg">
  <rect width="1600" height="1000" fill="#E5E7EB"/>
  <rect x="68" y="54" width="1464" height="892" rx="34" fill="#FFFFFF" stroke="#D1D5DB" stroke-width="3"/>
  <rect x="106" y="94" width="1388" height="62" rx="14" fill="#F3F4F6"/>
  <circle cx="140" cy="125" r="8" fill="#9CA3AF"/>
  <circle cx="166" cy="125" r="8" fill="#9CA3AF"/>
  <circle cx="192" cy="125" r="8" fill="#9CA3AF"/>
  <text x="1360" y="132" fill="#6B7280" font-family="Arial, sans-serif" font-size="20" text-anchor="end">cloudstream.io</text>
  <text x="136" y="236" fill="#111827" font-family="Arial, sans-serif" font-size="56" font-weight="700">CloudStream Analytics</text>
  <rect x="136" y="286" width="1328" height="560" rx="30" fill="#111827"/>
  <path d="M180 706L322 596L462 650L606 514L748 566L890 456L1032 518L1174 424L1318 476" stroke="#60A5FA" stroke-width="8" stroke-linecap="round" stroke-linejoin="round"/>
  <path d="M180 754L322 708L462 720L606 672L748 688L890 632L1032 648L1174 612L1318 628" stroke="#A3E635" stroke-width="8" stroke-linecap="round" stroke-linejoin="round"/>
  <rect x="186" y="344" width="260" height="148" rx="18" fill="#1F2937"/>
  <rect x="470" y="344" width="260" height="148" rx="18" fill="#1F2937"/>
  <rect x="754" y="344" width="260" height="148" rx="18" fill="#1F2937"/>
  <rect x="1038" y="344" width="260" height="148" rx="18" fill="#1F2937"/>
  <text x="212" y="430" fill="#93C5FD" font-family="Arial, sans-serif" font-size="28" font-weight="700">12.4M Events</text>
  <text x="500" y="430" fill="#A3E635" font-family="Arial, sans-serif" font-size="28" font-weight="700">99.98% Uptime</text>
  <text x="786" y="430" fill="#93C5FD" font-family="Arial, sans-serif" font-size="28" font-weight="700">63 Streams</text>
  <text x="1070" y="430" fill="#A3E635" font-family="Arial, sans-serif" font-size="28" font-weight="700">24 Alerts</text>
</svg>
