<svg width="1600" height="1000" viewBox="0 0 1600 1000" fill="none" xmlns="http://www.w3.org/2000/svg">
  <rect width="1600" height="1000" fill="#E2E8F0"/>
  <rect x="70" y="56" width="1460" height="888" rx="34" fill="#FFFFFF" stroke="#CBD5E1" stroke-width="3"/>
  <rect x="108" y="96" width="1384" height="62" rx="14" fill="#F8FAFC"/>
  <circle cx="142" cy="127" r="8" fill="#94A3B8"/>
  <circle cx="168" cy="127" r="8" fill="#94A3B8"/>
  <circle cx="194" cy="127" r="8" fill="#94A3B8"/>
  <text x="1360" y="132" fill="#64748B" font-family="Arial, sans-serif" font-size="20" text-anchor="end">neuralinsights.io</text>
  <text x="136" y="236" fill="#0F172A" font-family="Arial, sans-serif" font-size="56" font-weight="700">NeuralInsights BI</text>
  <rect x="136" y="290" width="1328" height="548" rx="30" fill="#0F172A"/>
  <rect x="178" y="336" width="420" height="220" rx="24" fill="#1E293B"/>
  <rect x="624" y="336" width="420" height="220" rx="24" fill="#1E293B"/>
  <rect x="1070" y="336" width="352" height="220" rx="24" fill="#1E293B"/>
  <rect x="178" y="584" width="772" height="208" rx="24" fill="#1E293B"/>
  <rect x="976" y="584" width="446" height="208" rx="24" fill="#1E293B"/>
  <path d="M220 742C280 684 360 676 430 698C498 720 562 710 628 650C692 592 754 582 820 606C888 630 950 622 1010 586" stroke="#22D3EE" stroke-width="8" stroke-linecap="round" stroke-linejoin="round"/>
  <text x="222" y="444" fill="#E2E8F0" font-family="Arial, sans-serif" font-size="30" font-weight="700">Forecast Engine</text>
  <text x="668" y="444" fill="#E2E8F0" font-family="Arial, sans-serif" font-size="30" font-weight="700">KPI Snapshot</text>
  <text x="1110" y="444" fill="#E2E8F0" font-family="Arial, sans-serif" font-size="30" font-weight="700">NLP Query</text>
</svg>
