<svg width="1600" height="1000" viewBox="0 0 1600 1000" fill="none" xmlns="http://www.w3.org/2000/svg">
  <rect width="1600" height="1000" fill="#E2E8F0"/>
  <rect x="70" y="56" width="1460" height="888" rx="34" fill="#FFFFFF" stroke="#CBD5E1" stroke-width="3"/>
  <rect x="108" y="96" width="1384" height="62" rx="14" fill="#F8FAFC"/>
  <circle cx="142" cy="127" r="8" fill="#94A3B8"/>
  <circle cx="168" cy="127" r="8" fill="#94A3B8"/>
  <circle cx="194" cy="127" r="8" fill="#94A3B8"/>
  <text x="1360" y="132" fill="#64748B" font-family="Arial, sans-serif" font-size="20" text-anchor="end">nexuscommerce.app</text>
  <rect x="132" y="204" width="410" height="690" rx="28" fill="#F8FAFC"/>
  <text x="164" y="270" fill="#0F172A" font-family="Arial, sans-serif" font-size="44" font-weight="700">NexusCommerce</text>
  <text x="164" y="312" fill="#475569" font-family="Arial, sans-serif" font-size="24">AR-ready storefront</text>
  <rect x="164" y="352" width="346" height="210" rx="20" fill="#0F172A"/>
  <circle cx="338" cy="458" r="74" fill="#38BDF8" fill-opacity="0.22"/>
  <rect x="164" y="590" width="346" height="120" rx="16" fill="#E2E8F0"/>
  <rect x="164" y="730" width="346" height="120" rx="16" fill="#E2E8F0"/>
  <rect x="574" y="204" width="884" height="690" rx="28" fill="#0F172A"/>
  <rect x="620" y="254" width="794" height="436" rx="24" fill="#111827"/>
  <rect x="648" y="286" width="260" height="320" rx="18" fill="#E2E8F0"/>
  <rect x="932" y="286" width="456" height="92" rx="14" fill="#1E293B"/>
  <rect x="932" y="396" width="456" height="92" rx="14" fill="#1E293B"/>
  <rect x="932" y="506" width="456" height="92" rx="14" fill="#1E293B"/>
  <text x="620" y="760" fill="#E2E8F0" font-family="Arial, sans-serif" font-size="46" font-weight="700">Immersive Product Showcase</text>
  <text x="620" y="806" fill="#94A3B8" font-family="Arial, sans-serif" font-size="26">Commerce + AR visualization + analytics</text>
</svg>
