<svg width="1600" height="1000" viewBox="0 0 1600 1000" fill="none" xmlns="http://www.w3.org/2000/svg">
  <rect width="1600" height="1000" fill="#E4E4E7"/>
  <rect x="72" y="58" width="1456" height="884" rx="34" fill="#FFFFFF" stroke="#D4D4D8" stroke-width="3"/>
  <rect x="110" y="96" width="1380" height="60" rx="14" fill="#F4F4F5"/>
  <circle cx="144" cy="126" r="8" fill="#A1A1AA"/>
  <circle cx="170" cy="126" r="8" fill="#A1A1AA"/>
  <circle cx="196" cy="126" r="8" fill="#A1A1AA"/>
  <text x="1362" y="132" fill="#71717A" font-family="Arial, sans-serif" font-size="20" text-anchor="end">pulsefit.app</text>
  <text x="136" y="230" fill="#18181B" font-family="Arial, sans-serif" font-size="54" font-weight="700">PulseFit Companion</text>
  <text x="136" y="274" fill="#52525B" font-family="Arial, sans-serif" font-size="24">Training plans, nutrition tracking, and live health metrics.</text>
  <rect x="136" y="322" width="620" height="520" rx="30" fill="#18181B"/>
  <rect x="184" y="370" width="220" height="424" rx="36" fill="#27272A"/>
  <rect x="450" y="370" width="258" height="424" rx="26" fill="#27272A"/>
  <circle cx="294" cy="582" r="90" fill="#A3E635" fill-opacity="0.25"/>
  <path d="M450 714C520 670 574 654 640 666" stroke="#A3E635" stroke-width="8" stroke-linecap="round"/>
  <rect x="794" y="322" width="670" height="160" rx="22" fill="#F4F4F5"/>
  <rect x="794" y="504" width="670" height="160" rx="22" fill="#F4F4F5"/>
  <rect x="794" y="686" width="670" height="156" rx="22" fill="#F4F4F5"/>
  <text x="834" y="414" fill="#18181B" font-family="Arial, sans-serif" font-size="30" font-weight="700">Adaptive Workout Generator</text>
  <text x="834" y="596" fill="#18181B" font-family="Arial, sans-serif" font-size="30" font-weight="700">Nutrition Goals + Smart Coach</text>
  <text x="834" y="776" fill="#18181B" font-family="Arial, sans-serif" font-size="30" font-weight="700">Wearable Sync and Recovery Score</text>
</svg>
