<svg width="1600" height="1000" viewBox="0 0 1600 1000" fill="none" xmlns="http://www.w3.org/2000/svg">
  <rect width="1600" height="1000" fill="#E5E7EB"/>
  <rect x="68" y="54" width="1464" height="892" rx="34" fill="#FFFFFF" stroke="#D1D5DB" stroke-width="3"/>
  <rect x="106" y="94" width="1388" height="62" rx="14" fill="#F3F4F6"/>
  <circle cx="140" cy="125" r="8" fill="#9CA3AF"/>
  <circle cx="166" cy="125" r="8" fill="#9CA3AF"/>
  <circle cx="192" cy="125" r="8" fill="#9CA3AF"/>
  <text x="1364" y="132" fill="#6B7280" font-family="Arial, sans-serif" font-size="20" text-anchor="end">velocitydeploy.dev</text>
  <text x="136" y="234" fill="#111827" font-family="Arial, sans-serif" font-size="56" font-weight="700">VelocityDeploy Pipeline</text>
  <rect x="136" y="292" width="1328" height="550" rx="30" fill="#111827"/>
  <rect x="182" y="362" width="224" height="124" rx="18" fill="#1F2937"/>
  <rect x="468" y="362" width="224" height="124" rx="18" fill="#1F2937"/>
  <rect x="754" y="362" width="224" height="124" rx="18" fill="#1F2937"/>
  <rect x="1040" y="362" width="224" height="124" rx="18" fill="#1F2937"/>
  <rect x="1226" y="362" width="196" height="124" rx="18" fill="#1F2937"/>
  <path d="M406 424H468" stroke="#A3E635" stroke-width="6" stroke-linecap="round"/>
  <path d="M692 424H754" stroke="#A3E635" stroke-width="6" stroke-linecap="round"/>
  <path d="M978 424H1040" stroke="#A3E635" stroke-width="6" stroke-linecap="round"/>
  <path d="M1264 424H1226" stroke="#A3E635" stroke-width="6" stroke-linecap="round"/>
  <text x="220" y="438" fill="#E5E7EB" font-family="Arial, sans-serif" font-size="24" font-weight="700">Build</text>
  <text x="500" y="438" fill="#E5E7EB" font-family="Arial, sans-serif" font-size="24" font-weight="700">Test</text>
  <text x="796" y="438" fill="#E5E7EB" font-family="Arial, sans-serif" font-size="24" font-weight="700">Scan</text>
  <text x="1076" y="438" fill="#E5E7EB" font-family="Arial, sans-serif" font-size="24" font-weight="700">Deploy</text>
  <text x="1274" y="438" fill="#E5E7EB" font-family="Arial, sans-serif" font-size="24" font-weight="700">Verify</text>
  <rect x="182" y="532" width="1240" height="262" rx="22" fill="#1F2937"/>
  <text x="220" y="602" fill="#A3E635" font-family="Courier New, monospace" font-size="24">Deploying release v2.4.1 - zero downtime mode enabled</text>
  <text x="220" y="650" fill="#93C5FD" font-family="Courier New, monospace" font-size="24">Blue/Green switch completed in 00:08.42</text>
  <text x="220" y="698" fill="#E5E7EB" font-family="Courier New, monospace" font-size="24">Health checks: all services stable</text>
</svg>
